<svg width="1024" height="1024" xmlns="http://www.w3.org/2000/svg"><path d="M132.436 732.022V291.526l202.833 117.865v205.103L132.436 732.022z" fill="#de6547"/><path d="M512.975 952.685V722.387L335.236 614.5l-202.81 117.526 380.549 220.66z" fill="#fdbc4d"/><path d="M891.57 732.022V291.526L688.739 409.391v205.103L891.57 732.022z" fill="#69b356"/><path d="M512.975 952.718v-230.33L688.748 614.5l202.826 117.51-378.6 220.708z" fill="#d1e993"/><path d="M512.975 71.315v230.298L335.236 409.5l-202.81-117.526L512.975 71.315z" fill="#80b7fa"/><path d="M512.975 71.282v230.33L688.748 409.5l202.826-117.51-378.6-220.708z" fill="#4581e1"/><g><path d="M585.04 542.255h90.144c7.926 8.25 19.068 13.373 31.44 13.373 24.078 0 43.612-19.52 43.612-43.63 0-24.097-19.534-43.627-43.611-43.627-12.347 0-23.515 5.148-31.44 13.389H585.04l63.73-63.756c.289 0 .56.023.852.023 24.096 0 43.627-19.534 43.627-43.63 0-24.1-19.53-43.627-43.627-43.627-24.1 0-43.63 19.527-43.63 43.627 0 .27.016.56.016.832l-63.734 63.743v-90.125c8.232-7.946 13.373-19.08 13.373-31.425 0-24.131-19.553-43.656-43.63-43.656-24.103 0-43.643 19.537-43.643 43.656 0 12.344 5.138 23.48 13.376 31.425v90.125l-63.74-63.743c0-.273.014-.562.014-.832 0-24.1-19.521-43.627-43.627-43.627s-43.653 19.527-43.653 43.627c0 24.096 19.527 43.63 43.633 43.63.277 0 .56-.023.83-.023l63.756 63.756h-90.148c-7.936-8.257-19.08-13.39-31.428-13.39-24.096 0-43.624 19.531-43.624 43.628 0 24.11 19.528 43.63 43.624 43.63a43.432 43.432 0 0031.428-13.373h90.148l-63.756 63.74c-.27 0-.553-.023-.83-.023-24.106 0-43.633 19.527-43.633 43.65 0 24.083 19.527 43.633 43.633 43.633 24.103 0 43.634-19.55 43.634-43.633 0-.293-.023-.563-.023-.85l63.737-63.748v90.154c-8.232 7.926-13.367 19.06-13.367 31.43 0 24.1 19.544 43.624 43.646 43.624 24.078 0 43.618-19.524 43.618-43.623 0-12.35-5.139-23.505-13.367-31.431v-90.154l63.736 63.749c0 .286-.019.54-.019.849 0 24.083 19.524 43.633 43.627 43.633 24.1 0 43.63-19.55 43.63-43.633 0-24.123-19.53-43.65-43.63-43.65-.292 0-.553.023-.846.023z" fill="#fff" paint-order="stroke" stroke="#2f2f2f" stroke-width="66.85200513"/></g></svg>